<svg width="25" height="22" viewBox="0 0 25 22" fill="none" xmlns="http://www.w3.org/2000/svg">
<path d="M14.0094 0.919015L24.5891 19.243C24.7504 19.5224 24.8354 19.8393 24.8354 20.162C24.8354 20.4846 24.7505 20.8016 24.5891 21.081C24.4278 21.3604 24.1958 21.5924 23.9164 21.7537C23.637 21.9151 23.32 22 22.9974 22H1.83798C1.51535 22 1.19839 21.9151 0.918985 21.7537C0.639575 21.5924 0.407553 21.3604 0.246238 21.081C0.0849223 20.8016 -2.04909e-06 20.4846 0 20.162C2.04917e-06 19.8393 0.0849304 19.5224 0.246249 19.243L10.826 0.919015C11.533 -0.306338 13.3012 -0.306338 14.0094 0.919015ZM12.4177 15.4419C12.0927 15.4419 11.781 15.571 11.5512 15.8008C11.3214 16.0306 11.1923 16.3423 11.1923 16.6673C11.1923 16.9922 11.3214 17.3039 11.5512 17.5337C11.781 17.7635 12.0927 17.8926 12.4177 17.8926C12.7427 17.8926 13.0543 17.7635 13.2841 17.5337C13.5139 17.3039 13.643 16.9922 13.643 16.6673C13.643 16.3423 13.5139 16.0306 13.2841 15.8008C13.0543 15.571 12.7427 15.4419 12.4177 15.4419ZM12.4177 6.86443C12.1176 6.86447 11.8279 6.97466 11.6036 7.1741C11.3793 7.37354 11.236 7.64835 11.2009 7.94642L11.1923 8.08979V12.9912C11.1927 13.3035 11.3123 13.6039 11.5267 13.831C11.7411 14.0581 12.0341 14.1948 12.3459 14.2131C12.6577 14.2314 12.9647 14.13 13.2042 13.9295C13.4437 13.729 13.5976 13.4447 13.6345 13.1346L13.643 12.9912V8.08979C13.643 7.7648 13.5139 7.45313 13.2841 7.22333C13.0543 6.99353 12.7427 6.86443 12.4177 6.86443Z" fill="#FF0000"/>
</svg>
