<svg width="24" height="24" viewBox="0 0 24 24" fill="none" xmlns="http://www.w3.org/2000/svg">
<path d="M5.7954 7.01242C6.30171 7.01202 6.78717 6.81074 7.14522 6.45276C7.50326 6.09478 7.70464 5.60937 7.70514 5.10306C7.70434 4.59685 7.50287 4.1116 7.14488 3.75369C6.7869 3.39578 6.30162 3.1944 5.7954 3.1937C5.28949 3.1947 4.80462 3.39625 4.44706 3.75416C4.0895 4.11207 3.88844 4.59715 3.88794 5.10306C3.88814 5.60906 4.08911 6.09431 4.44673 6.45229C4.80435 6.81027 5.2894 7.01172 5.7954 7.01242ZM5.72955 3.62818C5.83476 3.62818 5.9203 3.71334 5.9203 3.81893V4.96265L6.89825 4.50206C6.99287 4.45664 7.10641 4.49752 7.15145 4.59251C7.17294 4.63829 7.17541 4.69073 7.15831 4.73833C7.14121 4.78593 7.10595 4.82481 7.06024 4.84646L5.80865 5.438C5.77952 5.4514 5.74747 5.45718 5.71549 5.4548C5.68352 5.45242 5.65267 5.44195 5.62585 5.42438C5.60314 5.40975 5.58382 5.39043 5.5692 5.36771C5.55457 5.34499 5.54499 5.3194 5.54108 5.29267L5.53843 3.81855C5.53843 3.71296 5.62434 3.6278 5.72917 3.6278L5.72955 3.62818ZM13.979 3.75194H14.3332V3.39732H14.6878V3.04345H14.3332V2.68921H13.979V3.04345H13.6247V3.39732H13.979V3.75194Z" fill="white"/>
<path d="M20.8534 0H3.1458C1.4113 0 0 1.41168 0 3.14732V20.8527C0 22.5883 1.41168 24 3.1458 24H20.8534C22.5883 24 24.0008 22.5887 24.0008 20.8527V3.14732C24.0008 1.41205 22.5887 0 20.8534 0ZM14.158 2.54934C14.664 2.54934 15.4921 2.76204 15.9527 3.26653L15.3316 4.45946C15.1932 4.2799 15.0154 4.13454 14.8119 4.0346C14.6084 3.93466 14.3847 3.88281 14.158 3.88305C13.9339 3.8827 13.7127 3.93336 13.5112 4.0312C13.3096 4.12903 13.1329 4.27147 12.9946 4.44772L12.3611 3.29265C12.8943 2.75901 13.6312 2.54896 14.158 2.54896V2.54934ZM15.2953 5.44271C15.2952 5.74504 15.175 6.03495 14.9611 6.24866C14.7473 6.46237 14.4573 6.58237 14.155 6.58227C13.8527 6.58217 13.5627 6.46197 13.349 6.24812C13.1353 6.03427 13.0153 5.74428 13.0154 5.44195C13.0155 5.13962 13.1357 4.84971 13.3496 4.63601C13.4555 4.53019 13.5812 4.44626 13.7195 4.38902C13.8578 4.33178 14.006 4.30234 14.1557 4.30239C14.3054 4.30244 14.4537 4.33198 14.5919 4.38931C14.7302 4.44664 14.8559 4.53065 14.9617 4.63654C15.0675 4.74243 15.1514 4.86812 15.2087 5.00645C15.2659 5.14477 15.2953 5.29301 15.2953 5.44271ZM11.6972 7.92355C11.8013 7.55833 12.263 6.91191 13.0597 6.90775L15.2798 6.90926C16.059 6.92856 16.5109 7.56287 16.6146 7.92355L17.5892 11.1102H16.6211L15.8865 8.66534H15.3774L16.0859 11.1098H12.2199L12.9337 8.66534H12.4246L11.7093 11.1102H10.7268L11.6976 7.92355H11.6972ZM8.8489 11.9958L17.6187 11.9932C18.1527 11.9932 18.5838 12.4114 18.5883 12.9412L18.5902 15.5012H8.8489V11.9958ZM5.79582 2.56637C6.46855 2.56697 7.11355 2.83448 7.58925 3.31018C8.06494 3.78587 8.33245 4.43087 8.33305 5.1036C8.33305 6.50279 7.19425 7.64008 5.79582 7.64008C5.12336 7.63948 4.47862 7.37203 4.00319 6.89645C3.52776 6.42088 3.2605 5.77607 3.2601 5.1036C3.2601 3.70442 4.39663 2.56637 5.79582 2.56637ZM7.10985 13.9491C6.94746 13.9541 6.78573 13.9264 6.63424 13.8677C6.48276 13.8089 6.34461 13.7204 6.22799 13.6073C6.11136 13.4942 6.01864 13.3588 5.95532 13.2092C5.892 13.0596 5.85938 12.8988 5.85938 12.7363C5.85938 12.5738 5.892 12.413 5.95532 12.2634C6.01864 12.1138 6.11136 11.9784 6.22799 11.8653C6.34461 11.7522 6.48276 11.6637 6.63424 11.6049C6.78573 11.5462 6.94746 11.5185 7.10985 11.5235C7.4315 11.5235 7.73998 11.6513 7.96742 11.8787C8.19487 12.1062 8.32264 12.4147 8.32264 12.7363C8.32264 13.058 8.19487 13.3664 7.96742 13.5939C7.73998 13.8213 7.4315 13.9491 7.10985 13.9491ZM8.32397 14.9025C8.32397 15.2321 8.05639 15.4997 7.72675 15.4997H6.00095C5.92254 15.4997 5.84489 15.4843 5.77246 15.4543C5.70002 15.4243 5.63421 15.3803 5.57881 15.3248C5.5234 15.2693 5.47948 15.2035 5.44957 15.131C5.41966 15.0585 5.40434 14.9809 5.40449 14.9025C5.40449 14.5732 5.67017 14.3056 6.00095 14.3056H7.72675C8.05639 14.3056 8.32397 14.5732 8.32397 14.9025ZM20.7482 20.6865H19.1674V18.0168H4.97379V20.6865H3.37818V10.6235C3.37818 10.1875 3.72145 9.83366 4.15668 9.83366V9.83291C4.59343 9.83291 4.97379 10.1875 4.97379 10.6231V16.1056H19.1674V12.2203C19.1675 12.1164 19.1881 12.0136 19.228 11.9177C19.2679 11.8217 19.3263 11.7346 19.3999 11.6613C19.4734 11.5879 19.5607 11.5298 19.6567 11.4902C19.7527 11.4506 19.8556 11.4303 19.9595 11.4304C20.3959 11.4304 20.7482 11.7847 20.7482 12.2203V20.6865Z" fill="white"/>
</svg>
