<svg width="24" height="24" viewBox="0 0 24 24" fill="none" xmlns="http://www.w3.org/2000/svg">
<path d="M4.5 9.5C4.5 9.23478 4.60536 8.98043 4.79289 8.79289C4.98043 8.60536 5.23478 8.5 5.5 8.5C5.76522 8.5 6.01957 8.60536 6.20711 8.79289C6.39464 8.98043 6.5 9.23478 6.5 9.5C6.5 9.76522 6.39464 10.0196 6.20711 10.2071C6.01957 10.3946 5.76522 10.5 5.5 10.5C5.23478 10.5 4.98043 10.3946 4.79289 10.2071C4.60536 10.0196 4.5 9.76522 4.5 9.5ZM5.5 15.5C5.23478 15.5 4.98043 15.6054 4.79289 15.7929C4.60536 15.9804 4.5 16.2348 4.5 16.5C4.5 16.7652 4.60536 17.0196 4.79289 17.2071C4.98043 17.3946 5.23478 17.5 5.5 17.5C5.76522 17.5 6.01957 17.3946 6.20711 17.2071C6.39464 17.0196 6.5 16.7652 6.5 16.5C6.5 16.2348 6.39464 15.9804 6.20711 15.7929C6.01957 15.6054 5.76522 15.5 5.5 15.5ZM0 3.75C0 2.75544 0.395088 1.80161 1.09835 1.09835C1.80161 0.395088 2.75544 0 3.75 0H18.25C19.2446 0 20.1984 0.395088 20.9017 1.09835C21.6049 1.80161 22 2.75544 22 3.75V11.5C20.7028 10.5244 19.1231 9.99783 17.5 10H18.25C18.4489 10 18.6397 9.92098 18.7803 9.78033C18.921 9.63968 19 9.44891 19 9.25C19 9.05109 18.921 8.86032 18.7803 8.71967C18.6397 8.57902 18.4489 8.5 18.25 8.5H10.75C10.5511 8.5 10.3603 8.57902 10.2197 8.71967C10.079 8.86032 10 9.05109 10 9.25C10 9.44891 10.079 9.63968 10.2197 9.78033C10.3603 9.92098 10.5511 10 10.75 10H17.5C16.1072 10 14.7418 10.3879 13.557 11.1201C12.3722 11.8524 11.4147 12.9001 10.7918 14.1459C10.1689 15.3917 9.90522 16.7863 10.0303 18.1735C10.1554 19.5608 10.6643 20.8857 11.5 22H3.75C2.75544 22 1.80161 21.6049 1.09835 20.9017C0.395088 20.1984 0 19.2446 0 18.25V3.75ZM3 9.5C3 10.163 3.26339 10.7989 3.73223 11.2678C4.20107 11.7366 4.83696 12 5.5 12C6.16304 12 6.79893 11.7366 7.26777 11.2678C7.73661 10.7989 8 10.163 8 9.5C8 8.83696 7.73661 8.20107 7.26777 7.73223C6.79893 7.26339 6.16304 7 5.5 7C4.83696 7 4.20107 7.26339 3.73223 7.73223C3.26339 8.20107 3 8.83696 3 9.5ZM5.5 14C4.83696 14 4.20107 14.2634 3.73223 14.7322C3.26339 15.2011 3 15.837 3 16.5C3 17.163 3.26339 17.7989 3.73223 18.2678C4.20107 18.7366 4.83696 19 5.5 19C6.16304 19 6.79893 18.7366 7.26777 18.2678C7.73661 17.7989 8 17.163 8 16.5C8 15.837 7.73661 15.2011 7.26777 14.7322C6.79893 14.2634 6.16304 14 5.5 14ZM3 3.75C3 4.164 3.336 4.5 3.75 4.5H18.25C18.4489 4.5 18.6397 4.42098 18.7803 4.28033C18.921 4.13968 19 3.94891 19 3.75C19 3.55109 18.921 3.36032 18.7803 3.21967C18.6397 3.07902 18.4489 3 18.25 3H3.75C3.55109 3 3.36032 3.07902 3.21967 3.21967C3.07902 3.36032 3 3.55109 3 3.75ZM24 17.5C24 19.2239 23.3152 20.8772 22.0962 22.0962C20.8772 23.3152 19.2239 24 17.5 24C15.7761 24 14.1228 23.3152 12.9038 22.0962C11.6848 20.8772 11 19.2239 11 17.5C11 15.7761 11.6848 14.1228 12.9038 12.9038C14.1228 11.6848 15.7761 11 17.5 11C19.2239 11 20.8772 11.6848 22.0962 12.9038C23.3152 14.1228 24 15.7761 24 17.5ZM18 13.5C18 13.3674 17.9473 13.2402 17.8536 13.1464C17.7598 13.0527 17.6326 13 17.5 13C17.3674 13 17.2402 13.0527 17.1464 13.1464C17.0527 13.2402 17 13.3674 17 13.5V17H13.5C13.3674 17 13.2402 17.0527 13.1464 17.1464C13.0527 17.2402 13 17.3674 13 17.5C13 17.6326 13.0527 17.7598 13.1464 17.8536C13.2402 17.9473 13.3674 18 13.5 18H17V21.5C17 21.6326 17.0527 21.7598 17.1464 21.8536C17.2402 21.9473 17.3674 22 17.5 22C17.6326 22 17.7598 21.9473 17.8536 21.8536C17.9473 21.7598 18 21.6326 18 21.5V18H21.5C21.6326 18 21.7598 17.9473 21.8536 17.8536C21.9473 17.7598 22 17.6326 22 17.5C22 17.3674 21.9473 17.2402 21.8536 17.1464C21.7598 17.0527 21.6326 17 21.5 17H18V13.5Z" fill="white"/>
</svg>
