<svg width="18" height="22" viewBox="0 0 18 22" fill="none" xmlns="http://www.w3.org/2000/svg">
<path d="M7.875 14.1075V17.6C7.875 17.9117 7.983 18.1731 8.199 18.3843C8.415 18.5955 8.682 18.7007 9 18.7C9.318 18.6993 9.58538 18.5937 9.80213 18.3832C10.0189 18.1727 10.1265 17.9117 10.125 17.6V14.1075L11.1375 15.0975C11.25 15.2075 11.3767 15.29 11.5177 15.345C11.6587 15.4 11.7994 15.4231 11.9396 15.4143C12.0799 15.4055 12.2156 15.3732 12.3469 15.3175C12.4781 15.2618 12.6 15.1793 12.7125 15.07C12.9188 14.85 13.0268 14.5933 13.0365 14.3C13.0463 14.0067 12.9383 13.75 12.7125 13.53L9.7875 10.67C9.675 10.56 9.55313 10.4823 9.42188 10.4368C9.29062 10.3913 9.15 10.3682 9 10.3675C8.85 10.3668 8.70938 10.3899 8.57812 10.4368C8.44687 10.4837 8.325 10.5615 8.2125 10.67L5.2875 13.53C5.0625 13.75 4.95488 14.0067 4.96463 14.3C4.97438 14.5933 5.09138 14.85 5.31563 15.07C5.54063 15.2717 5.80313 15.3773 6.10313 15.3868C6.40313 15.3963 6.66562 15.2907 6.89062 15.07L7.875 14.1075ZM2.25 22C1.63125 22 1.10175 21.7848 0.6615 21.3543C0.22125 20.9238 0.00075 20.4057 0 19.8V2.2C0 1.595 0.2205 1.07727 0.6615 0.6468C1.1025 0.216333 1.632 0.000733333 2.25 0H10.3219C10.6219 0 10.908 0.0550001 11.1802 0.165C11.4525 0.275 11.6914 0.430833 11.8969 0.6325L17.3531 5.9675C17.5594 6.16917 17.7188 6.4031 17.8313 6.6693C17.9438 6.9355 18 7.2149 18 7.5075V19.8C18 20.405 17.7799 20.9231 17.3396 21.3543C16.8994 21.7855 16.3695 22.0007 15.75 22H2.25ZM10.125 6.6C10.125 6.91167 10.233 7.1731 10.449 7.3843C10.665 7.5955 10.932 7.70073 11.25 7.7H15.75L10.125 2.2V6.6Z" fill="white"/>
</svg>
