<svg width="24" height="22" viewBox="0 0 24 22" fill="none" xmlns="http://www.w3.org/2000/svg">
<path d="M20.4 0H3.6C1.9032 0 1.0548 -7.28509e-08 0.528 0.503561C0.00120006 1.00712 0 1.81869 0 3.44059V4.28394C0 5.55139 0 6.18573 0.312 6.7113C0.624 7.23686 1.1916 7.56442 2.3304 8.21709L5.826 10.2216C6.5892 10.6591 6.972 10.8779 7.2456 11.1199C7.8144 11.6222 8.1648 12.2138 8.3232 12.941C8.4 13.2881 8.4 13.6964 8.4 14.5116V17.775C8.4 18.886 8.4 19.4421 8.7024 19.8748C9.0048 20.3087 9.5424 20.5226 10.6152 20.9503C12.87 21.8475 13.9968 22.296 14.7984 21.7851C15.6 21.2742 15.6 20.1082 15.6 17.7737V14.5104C15.6 13.6964 15.6 13.2881 15.6768 12.9398C15.8275 12.2274 16.2071 11.5866 16.7556 11.1187C17.028 10.8779 17.4108 10.6591 18.174 10.2203L21.6696 8.21587C22.8072 7.56442 23.3772 7.23808 23.688 6.71252C24 6.18696 24 5.55139 24 4.28271V3.43937C24 1.81869 24 1.00712 23.472 0.503561C22.9464 -7.28509e-08 22.098 0 20.4 0Z" fill="white"/>
</svg>
