<svg width="25" height="22" viewBox="0 0 25 22" fill="none" xmlns="http://www.w3.org/2000/svg">
<path d="M0 18.1176V17.0823C0 16.349 0.180825 15.6752 0.542476 15.0609C0.904127 14.4467 1.40406 13.9773 2.04226 13.6529C3.25486 13.0274 4.51553 12.5314 5.82428 12.1647C7.13303 11.798 8.46774 11.6147 9.82839 11.6147C10.1262 11.6147 10.3602 11.7497 10.5304 12.0198C10.7006 12.2898 10.7325 12.5754 10.6262 12.8765C10.4985 13.3294 10.4028 13.7823 10.339 14.2353C10.2751 14.6882 10.2432 15.152 10.2432 15.6265C10.2432 16.252 10.307 16.8559 10.4347 17.4382C10.5623 18.0206 10.7432 18.5922 10.9772 19.1529C11.1474 19.5196 11.1316 19.8703 10.9299 20.2051C10.7283 20.5398 10.4462 20.7067 10.0837 20.7059H2.55283C1.8508 20.7059 1.25004 20.4527 0.750532 19.9462C0.251028 19.4398 0.000850943 18.8303 0 18.1176ZM19.1462 18.1176C19.8482 18.1176 20.4494 17.8644 20.9498 17.358C21.4502 16.8516 21.6999 16.242 21.6991 15.5294C21.6982 14.8168 21.4484 14.2077 20.9498 13.7021C20.4511 13.1965 19.85 12.9429 19.1462 12.9412C18.4425 12.9394 17.8417 13.1931 17.3439 13.7021C16.8461 14.2111 16.5959 14.8202 16.5934 15.5294C16.5908 16.2386 16.841 16.8481 17.3439 17.358C17.8468 17.8679 18.4476 18.1211 19.1462 18.1176ZM10.2113 10.3529C8.80726 10.3529 7.6053 9.84608 6.60545 8.83235C5.60559 7.81863 5.10566 6.6 5.10566 5.17647C5.10566 3.75294 5.60559 2.53431 6.60545 1.52059C7.6053 0.506863 8.80726 0 10.2113 0C11.6154 0 12.8173 0.506863 13.8172 1.52059C14.817 2.53431 15.317 3.75294 15.317 5.17647C15.317 6.6 14.817 7.81863 13.8172 8.83235C12.8173 9.84608 11.6154 10.3529 10.2113 10.3529ZM17.6783 20.9647L17.4869 20.0588C17.2316 19.951 16.9925 19.838 16.7695 19.7198C16.5466 19.6016 16.3177 19.4558 16.0828 19.2823L15.1574 19.5735C14.8809 19.6598 14.6098 19.649 14.3443 19.5412C14.0789 19.4333 13.8712 19.2608 13.7215 19.0235L13.4662 18.5706C13.3173 18.3118 13.2641 18.0314 13.3066 17.7294C13.3492 17.4274 13.4874 17.1794 13.7215 16.9853L14.4235 16.3706C14.3809 16.0686 14.3597 15.7882 14.3597 15.5294C14.3597 15.2706 14.3809 14.9902 14.4235 14.6882L13.7215 14.0735C13.4874 13.8794 13.3492 13.6365 13.3066 13.3449C13.2641 13.0533 13.3173 12.7785 13.4662 12.5206L13.7534 12.0353C13.9023 11.798 14.1044 11.6255 14.3597 11.5176C14.6149 11.4098 14.8809 11.399 15.1574 11.4853L16.0828 11.7765C16.3168 11.6039 16.5457 11.4581 16.7695 11.3391C16.9933 11.22 17.2324 11.107 17.4869 11L17.6783 10.0618C17.7422 9.7598 17.886 9.51737 18.1098 9.33447C18.3336 9.15157 18.594 9.05968 18.8909 9.05882H19.4015C19.6993 9.05882 19.9601 9.15588 20.1839 9.35C20.4077 9.54412 20.5511 9.79215 20.6141 10.0941L20.8056 11C21.0608 11.1078 21.3 11.2265 21.5229 11.3559C21.7459 11.4853 21.9748 11.6471 22.2096 11.8412L23.0712 11.55C23.369 11.4422 23.6562 11.4422 23.9328 11.55C24.2093 11.6578 24.4221 11.8412 24.571 12.1L24.8263 12.5529C24.9752 12.8118 25.0284 13.0922 24.9858 13.3941C24.9433 13.6961 24.805 13.9441 24.571 14.1382L23.869 14.7529C23.9115 15.0118 23.9328 15.2814 23.9328 15.5618C23.9328 15.8422 23.9115 16.1118 23.869 16.3706L24.571 16.9853C24.805 17.1794 24.9433 17.4223 24.9858 17.7139C25.0284 18.0055 24.9752 18.2803 24.8263 18.5382L24.5391 19.0235C24.3902 19.2608 24.1881 19.4333 23.9328 19.5412C23.6775 19.649 23.4116 19.6598 23.135 19.5735L22.2096 19.2823C21.9756 19.4549 21.7467 19.6003 21.5229 19.7185C21.2991 19.8367 21.06 19.9501 20.8056 20.0588L20.6141 20.9971C20.5503 21.299 20.4069 21.5419 20.1839 21.7256C19.961 21.9094 19.7002 22.0009 19.4015 22H18.8909C18.5931 22 18.3327 21.9029 18.1098 21.7088C17.8868 21.5147 17.743 21.2667 17.6783 20.9647Z" fill="white"/>
</svg>
