<svg width="23" height="23" viewBox="0 0 23 23" fill="none" xmlns="http://www.w3.org/2000/svg">
<path d="M1.22222 1.22222V0H0V1.22222H1.22222ZM12.5803 14.3086C12.8108 14.5312 13.1196 14.6544 13.44 14.6516C13.7605 14.6488 14.0671 14.5203 14.2937 14.2937C14.5203 14.0671 14.6488 13.7605 14.6516 13.44C14.6544 13.1196 14.5312 12.8108 14.3086 12.5803L12.5803 14.3086ZM2.44444 11V1.22222H0V11H2.44444ZM1.22222 2.44444H11V0H1.22222V2.44444ZM0.358111 2.08633L12.5803 14.3086L14.3086 12.5803L2.08633 0.358111L0.358111 2.08633Z" fill="black"/>
<path d="M2.44446 15.8889C2.44446 18.1745 2.44446 19.316 2.93579 20.1667C3.2576 20.724 3.72043 21.1869 4.27779 21.5087C5.12846 22 6.27001 22 8.55557 22H14.6667C18.1231 22 19.8526 22 20.9257 20.9257C22 19.8526 22 18.1231 22 14.6667V8.55557C22 6.27001 22 5.12846 21.5087 4.27779C21.1869 3.72043 20.724 3.2576 20.1667 2.93579C19.316 2.44446 18.1745 2.44446 15.8889 2.44446" stroke="black" stroke-width="2" stroke-linecap="round"/>
</svg>
