<svg width="42" height="22" viewBox="0 0 42 22" fill="none" xmlns="http://www.w3.org/2000/svg">
<path d="M0.565987 13.0725C0.173569 12.6801 -0.0147911 12.2223 0.00090558 11.699C0.0166023 11.1758 0.221314 10.718 0.615039 10.3256C1.00746 9.96585 1.46528 9.77749 1.9885 9.76049C2.51173 9.74349 2.96955 9.93184 3.36196 10.3256L10.3274 17.291L11.0141 17.9777L11.7008 18.6644C12.0933 19.0569 12.2816 19.5147 12.2659 20.0379C12.2502 20.5611 12.0455 21.019 11.6518 21.4114C11.2594 21.7711 10.8016 21.9594 10.2783 21.9765C9.7551 21.9935 9.29728 21.8051 8.90486 21.4114L0.565987 13.0725ZM21.3641 17.2419L38.0419 0.564179C38.4343 0.171761 38.8921 -0.0159454 39.4153 0.0010594C39.9386 0.0180642 40.3964 0.222121 40.7888 0.613231C41.1485 1.00565 41.3369 1.46347 41.3539 1.98669C41.3709 2.50992 41.1825 2.96774 40.7888 3.36016L22.7376 21.4114C22.3452 21.8038 21.8874 22 21.3641 22C20.8409 22 20.3831 21.8038 19.9907 21.4114L11.6518 13.0725C11.2921 12.7128 11.1122 12.2635 11.1122 11.7245C11.1122 11.1856 11.2921 10.7193 11.6518 10.3256C12.0442 9.93315 12.5105 9.73694 13.0508 9.73694C13.591 9.73694 14.0567 9.93315 14.4478 10.3256L21.3641 17.2419ZM29.654 3.40921L22.7376 10.3256C22.3779 10.6853 21.9286 10.8651 21.3896 10.8651C20.8507 10.8651 20.3844 10.6853 19.9907 10.3256C19.5982 9.93315 19.402 9.46748 19.402 8.92856C19.402 8.38964 19.5982 7.92332 19.9907 7.5296L26.907 0.613231C27.2667 0.253514 27.7167 0.073657 28.2569 0.073657C28.7972 0.073657 29.2628 0.253514 29.654 0.613231C30.0464 1.00565 30.2426 1.47132 30.2426 2.01024C30.2426 2.54916 30.0464 3.01548 29.654 3.40921Z" fill="white"/>
</svg>
